<svg width="13" height="10" viewBox="0 0 13 10" fill="none" xmlns="http://www.w3.org/2000/svg">
<path d="M12.052 3.33917C10.7035 1.22008 8.73039 0 6.65216 0C5.61305 0 4.60313 0.303561 3.68077 0.869819C2.75841 1.44191 1.92946 2.27671 1.25228 3.33917C0.66851 4.25569 0.66851 5.74431 1.25228 6.66083C2.60079 8.78576 4.57394 10 6.65216 10C7.69128 10 8.7012 9.69644 9.62356 9.13018C10.5459 8.55809 11.3749 7.72329 12.052 6.66083C12.6358 5.75015 12.6358 4.25569 12.052 3.33917ZM6.65216 7.36135C5.34452 7.36135 4.29373 6.30473 4.29373 5.00292C4.29373 3.70111 5.34452 2.64448 6.65216 2.64448C7.95981 2.64448 9.0106 3.70111 9.0106 5.00292C9.0106 6.30473 7.95981 7.36135 6.65216 7.36135Z" fill="#ffffff"/>
<path d="M6.65104 3.33334C6.20901 3.33334 5.78509 3.50894 5.47253 3.8215C5.15997 4.13406 4.98438 4.55798 4.98438 5.00001C4.98438 5.44204 5.15997 5.86596 5.47253 6.17852C5.78509 6.49108 6.20901 6.66668 6.65104 6.66668C7.56756 6.66668 8.32063 5.91945 8.32063 5.00293C8.32063 4.08641 7.56756 3.33334 6.65104 3.33334Z" fill="#ffffff"/>
</svg>
