<svg width="10" height="10" viewBox="0 0 10 10" fill="none" xmlns="http://www.w3.org/2000/svg">
<path d="M8.86387 1.8503C8.11539 1.77592 7.3669 1.72013 6.61376 1.67829V1.67364L6.51148 1.06927C6.44175 0.641562 6.33947 0 5.2516 0H4.03356C2.95035 0 2.84807 0.613668 2.77368 1.06462L2.67605 1.65969C2.2437 1.68759 1.81134 1.71548 1.37898 1.75732L0.430587 1.8503C0.235329 1.8689 0.0958592 2.04091 0.114455 2.23152C0.133051 2.42213 0.300415 2.5616 0.495673 2.543L1.44407 2.45002C3.88015 2.20828 6.33482 2.30126 8.79879 2.54765H8.83598C9.01264 2.54765 9.16606 2.41283 9.18466 2.23152C9.19166 2.13865 9.16199 2.04674 9.10203 1.97547C9.04207 1.90421 8.95657 1.85928 8.86387 1.8503ZM8.00846 3.20316C7.89688 3.08694 7.74347 3.02185 7.5854 3.02185H1.70906C1.551 3.02185 1.39293 3.08694 1.286 3.20316C1.17908 3.31939 1.11864 3.47745 1.12794 3.64017L1.41618 8.41004C1.46731 9.11669 1.5324 10 3.1549 10H6.13956C7.76206 10 7.82715 9.12134 7.87829 8.41004L8.16652 3.64482C8.17582 3.47745 8.11539 3.31939 8.00846 3.20316ZM5.41896 7.67085H3.87085C3.68024 7.67085 3.52217 7.51278 3.52217 7.32218C3.52217 7.13157 3.68024 6.9735 3.87085 6.9735H5.41896C5.60957 6.9735 5.76764 7.13157 5.76764 7.32218C5.76764 7.51278 5.60957 7.67085 5.41896 7.67085ZM5.80948 5.81125H3.48498C3.29437 5.81125 3.13631 5.65318 3.13631 5.46258C3.13631 5.27197 3.29437 5.1139 3.48498 5.1139H5.80948C6.00009 5.1139 6.15816 5.27197 6.15816 5.46258C6.15816 5.65318 6.00009 5.81125 5.80948 5.81125Z" fill="#ffffff"/>
</svg>
