<svg width="40" height="41" viewBox="0 0 40 41" fill="none" xmlns="http://www.w3.org/2000/svg">
<path d="M12.565 40.8867C27.66 40.8867 35.9175 25.299 35.9175 11.8051C35.9175 11.3689 35.9175 10.9264 35.9025 10.4902C37.5101 9.03986 38.8977 7.24419 40 5.18738C38.4983 6.01257 36.9069 6.55642 35.2775 6.8013C36.9938 5.52274 38.2793 3.51105 38.895 1.14013C37.2825 2.3307 35.5175 3.16647 33.6775 3.61085C32.4405 1.96897 30.8035 0.88127 29.0202 0.516237C27.2369 0.151205 25.4068 0.529211 23.8133 1.5917C22.2199 2.6542 20.952 4.34188 20.2061 6.39333C19.4602 8.44479 19.2779 10.7455 19.6875 12.9392C16.4244 12.7352 13.232 11.6788 10.3176 9.83827C7.40317 7.99777 4.83171 5.41434 2.77 2.25554C1.72335 4.50842 1.40393 7.17331 1.87662 9.70904C2.3493 12.2448 3.57864 14.4613 5.315 15.9084C4.01385 15.8533 2.7413 15.4179 1.6 14.6372V14.7774C1.60224 17.1375 2.25827 19.4242 3.45718 21.251C4.6561 23.0779 6.32437 24.3328 8.18 24.8036C7.47566 25.0455 6.74807 25.166 6.0175 25.1619C5.50246 25.1639 4.98845 25.1044 4.4825 24.9843C5.00697 27.0159 6.02818 28.7922 7.40312 30.0644C8.77805 31.3365 10.4378 32.0409 12.15 32.0787C9.24139 34.9258 5.6485 36.47 1.95 36.4625C1.2983 36.4659 0.647058 36.4191 0 36.3223C3.75379 39.3048 8.11324 40.8884 12.565 40.8867Z" fill="white"/>
</svg>
