<svg width="11" height="10" viewBox="0 0 11 10" fill="none" xmlns="http://www.w3.org/2000/svg">
<path d="M9.14498 3.01288L8.3808 3.77706L6.84218 2.23844L7.60636 1.47426C7.82177 1.25885 8.09872 1.15627 8.37567 1.15627C8.65262 1.15627 8.92957 1.25885 9.14498 1.47426C9.57067 1.89994 9.57067 2.58719 9.14498 3.01288ZM8.02179 4.14171L2.47763 9.68074C2.05195 10.1064 1.3647 10.1064 0.939013 9.68074C0.513329 9.25505 0.513329 8.5678 0.939013 8.14212L6.48317 2.60309L8.02179 4.14171ZM4.24704 0.961896L4.45732 0.249002C4.47784 0.182329 4.45732 0.110527 4.41116 0.0592395C4.36501 0.0079522 4.28295 -0.0125627 4.21627 0.00795219L3.50338 0.21823L2.79048 0.00795219C2.72381 -0.0125627 2.65201 0.0079522 2.60072 0.0541108C2.54943 0.105398 2.53405 0.1772 2.55456 0.243874L2.75971 0.961896L2.54943 1.67479C2.52892 1.74146 2.54943 1.81327 2.59559 1.86455C2.64688 1.91584 2.71868 1.93123 2.78536 1.91071L3.50338 1.70556L4.21627 1.91584C4.23679 1.92097 4.25217 1.9261 4.27269 1.9261C4.32397 1.9261 4.37013 1.90558 4.41116 1.86968C4.46245 1.81839 4.47784 1.74659 4.45732 1.67992L4.24704 0.961896ZM2.19555 4.03913L2.40583 3.32624C2.42634 3.25957 2.40583 3.18776 2.35967 3.13648C2.30838 3.08519 2.23658 3.0698 2.16991 3.09032L1.45189 3.29547L0.738993 3.08519C0.672319 3.06468 0.600517 3.08519 0.54923 3.13135C0.497942 3.18264 0.482556 3.25444 0.503071 3.32111L0.70822 4.03913L0.497942 4.75203C0.477428 4.8187 0.497942 4.8905 0.544101 4.94179C0.595388 4.99308 0.66719 5.00846 0.733864 4.98795L1.44676 4.77767L2.15965 4.98795C2.17504 4.99308 2.19555 4.99308 2.21607 4.99308C2.26735 4.99308 2.31351 4.97256 2.35454 4.93666C2.40583 4.88537 2.42122 4.81357 2.4007 4.7469L2.19555 4.03913ZM9.88865 6.6035L10.0989 5.89061C10.1194 5.82393 10.0989 5.75213 10.0528 5.70084C10.0015 5.64956 9.92968 5.63417 9.863 5.65468L9.15011 5.86496L8.43722 5.65468C8.37054 5.63417 8.29874 5.65468 8.24745 5.70084C8.19617 5.75213 8.18078 5.82393 8.20129 5.89061L8.41157 6.6035L8.20129 7.31639C8.18078 7.38307 8.20129 7.45487 8.24745 7.50616C8.29874 7.55744 8.37054 7.57283 8.43722 7.55231L9.15011 7.34204L9.863 7.55231C9.87839 7.55744 9.8989 7.55744 9.91942 7.55744C9.97071 7.55744 10.0169 7.53693 10.0579 7.50103C10.1092 7.44974 10.1246 7.37794 10.1041 7.31126L9.88865 6.6035Z" fill="#ffffff"/>
</svg>
