<?xml version="1.0" encoding="utf-8"?>
<!-- Generator: Adobe Illustrator 24.0.2, SVG Export Plug-In . SVG Version: 6.00 Build 0)  -->
<svg version="1.1" id="Capa_1" xmlns="http://www.w3.org/2000/svg" xmlns:xlink="http://www.w3.org/1999/xlink" x="0px" y="0px"
	 viewBox="0 0 427.1 230.2" style="enable-background:new 0 0 427.1 230.2;" xml:space="preserve">
<style type="text/css">
	.st0{fill:#88D1F4;}
	.st1{fill:#88D1F4;stroke:#800000018000000180000001;stroke-width:0.5;stroke-miterlimit:10;}
</style>
<g id="Grupo_11" transform="translate(-101.103 -3157.267)">
	<path id="Trazado_93" class="st0" d="M330.9,3354.6v11H144.5v-11h87.7v-164.4h-87.7v-11h98.6v175.4L330.9,3354.6z"/>
	<rect id="Rectángulo_14" x="144.5" y="3376.5" class="st0" width="186.3" height="11"/>
	<path id="Trazado_94" class="st0" d="M330.9,3332.7v10.9h-76.7v-175.4H144.5v-11h120.6v175.4L330.9,3332.7z"/>
	<path id="Trazado_95" class="st0" d="M221.2,3201.1v142.5h-76.7v-10.9h65.8v-120.6h-65.8v-11H221.2z"/>
	<path id="Trazado_96" class="st0" d="M121.3,3211.4c-0.5,0.2-1,0.4-1.6,0.5c-0.8,0.1-1.7,0.2-2.5,0.2c-1.1,0-2.6,0.1-4.6,0.1
		c-2,0-3.5,0-4.6-0.1c-0.9,0-1.7-0.1-2.5-0.2c-0.5-0.1-1.1-0.2-1.6-0.4c-1.8-0.8-3-2.7-2.8-4.6c-0.1-1.3,0.4-2.6,1.2-3.5
		c0.4-0.4,0.8-0.7,1.2-0.9c0.6-0.2,1.2-0.4,1.8-0.4c0.7-0.1,1.7-0.1,2.8-0.2v1.4c-0.8,0-1.7,0-2.5,0.1c-0.5,0-1,0.2-1.5,0.3
		c-0.4,0.1-0.7,0.4-0.9,0.6c-0.6,0.7-0.9,1.6-0.9,2.6c0,0.7,0.1,1.5,0.5,2.1c0.4,0.6,0.9,1,1.6,1.3c0.4,0.2,0.9,0.3,1.3,0.3
		c0.8,0.1,1.5,0.1,2.3,0.2c1,0,2.5,0,4.5,0c2,0,3.5,0,4.5,0c0.8,0,1.5-0.1,2.3-0.2c0.4-0.1,0.9-0.2,1.3-0.3c0.6-0.3,1.2-0.7,1.5-1.3
		c0.4-0.6,0.6-1.4,0.5-2.1c0-1-0.3-1.9-0.9-2.6c-0.3-0.3-0.6-0.5-0.9-0.6c-0.5-0.2-1-0.3-1.6-0.3c-0.7-0.1-1.6-0.1-2.7-0.1v-1.3
		c1,0,2,0,3,0.1c0.7,0.1,1.3,0.2,1.9,0.5c0.5,0.2,0.9,0.5,1.3,0.9c0.8,1,1.3,2.3,1.2,3.6C124.2,3208.7,123.1,3210.6,121.3,3211.4"/>
	<rect id="Rectángulo_15" x="101.4" y="3195.8" class="st0" width="22.3" height="1.4"/>
	<path id="Trazado_97" class="st0" d="M121.3,3190.5c-0.5,0.2-1,0.4-1.6,0.5c-0.8,0.1-1.7,0.2-2.5,0.2c-1.1,0-2.6,0.1-4.6,0.1
		c-2,0-3.5,0-4.6-0.1c-0.9,0-1.7-0.1-2.5-0.2c-0.5-0.1-1.1-0.2-1.6-0.4c-1.8-0.8-3-2.7-2.8-4.6c-0.1-1.3,0.4-2.6,1.2-3.5
		c0.4-0.4,0.8-0.7,1.2-0.9c0.6-0.2,1.2-0.4,1.8-0.4c0.7-0.1,1.7-0.1,2.8-0.2v1.4c-0.8,0-1.7,0-2.5,0.1c-0.5,0-1,0.2-1.5,0.3
		c-0.4,0.1-0.7,0.4-0.9,0.6c-0.6,0.7-0.9,1.6-0.9,2.6c0,0.7,0.1,1.5,0.5,2.1c0.4,0.6,0.9,1,1.6,1.3c0.4,0.2,0.9,0.3,1.3,0.3
		c0.8,0.1,1.5,0.1,2.3,0.2c1,0,2.5,0,4.5,0c2,0,3.5,0,4.5,0c0.8,0,1.5-0.1,2.3-0.2c0.4-0.1,0.9-0.2,1.3-0.3c0.6-0.3,1.2-0.7,1.5-1.3
		c0.4-0.6,0.6-1.4,0.5-2.1c0-1-0.3-1.9-0.9-2.6c-0.3-0.3-0.6-0.5-0.9-0.6c-0.5-0.2-1-0.3-1.6-0.3c-0.7-0.1-1.6-0.1-2.7-0.1v-1.3
		c1,0,2,0,3,0.1c0.7,0.1,1.3,0.2,1.9,0.5c0.5,0.2,0.9,0.5,1.3,0.9c0.8,1,1.3,2.3,1.2,3.6C124.2,3187.9,123.1,3189.8,121.3,3190.5"/>
	<path id="Trazado_98" class="st0" d="M101.4,3176.4v-1.4h21.1v-4.4h1.3v5.8L101.4,3176.4z"/>
	<path id="Trazado_99" class="st0" d="M123.3,3165.6c-0.5,0.8-1.2,1.3-2,1.7c-0.5,0.2-1.1,0.4-1.6,0.5c-0.9,0.1-1.7,0.2-2.6,0.2
		c-1.1,0-2.6,0.1-4.5,0.1c-2.1,0-3.7,0-4.7-0.1c-0.8,0-1.6-0.1-2.4-0.2c-0.5-0.1-1-0.2-1.5-0.5c-0.9-0.3-1.6-1-2.1-1.7
		c-0.5-0.9-0.8-1.9-0.7-2.9c0-1,0.2-2.1,0.7-2.9c0.5-0.8,1.2-1.4,2.1-1.7c0.5-0.2,1-0.3,1.5-0.4c0.8-0.1,1.6-0.2,2.5-0.2
		c1.1,0,2.6-0.1,4.6-0.1c2.1,0,3.7,0,4.7,0.1c0.8,0,1.6,0.1,2.4,0.2c0.5,0.1,1,0.2,1.5,0.5c1.8,0.8,2.9,2.7,2.8,4.6
		C124.1,3163.7,123.8,3164.7,123.3,3165.6 M120.7,3159.2c-0.4-0.2-0.8-0.3-1.3-0.4c-0.7-0.1-1.5-0.1-2.2-0.2c-1,0-2.5,0-4.6,0
		c-2,0-3.5,0-4.5,0c-0.8,0-1.5,0.1-2.3,0.2c-0.5,0.1-0.9,0.2-1.3,0.4c-0.6,0.3-1.2,0.7-1.5,1.3c-0.4,0.7-0.6,1.4-0.5,2.2
		c0,0.8,0.1,1.5,0.5,2.1c0.4,0.6,0.9,1,1.5,1.3c0.4,0.2,0.8,0.3,1.3,0.3c0.8,0.1,1.5,0.1,2.3,0.2c1,0,2.5,0,4.6,0c2,0,3.5,0,4.6,0
		c0.8,0,1.5-0.1,2.3-0.2c0.4-0.1,0.9-0.2,1.3-0.3c0.6-0.3,1.2-0.7,1.6-1.3c0.4-0.6,0.6-1.4,0.5-2.1
		C122.9,3161.2,122,3159.8,120.7,3159.2"/>
</g>
<path id="Trazado_25" class="st0" d="M427.1,0v142.5H295.5v32.9h131.5v11H284.6v-54.8h131.6V11H240.7V0H427.1z"/>
<path id="Trazado_26" class="st0" d="M427.1,197.3v10.9H262.7v-98.6h131.5V32.9H240.7v-11h164.4v98.7H273.6v76.7H427.1z"/>
<path id="Trazado_27" class="st0" d="M427.1,219.2v11H240.7V87.7h131.5V54.8H240.7v-11h142.5v54.8H251.7v120.6H427.1z"/>
<path id="Trazado_28" class="st1" d="M427.1,0v142.5H295.5v32.9h131.5v11H284.6v-54.8h131.6V11H240.7V0H427.1z"/>
<path id="Trazado_29" class="st1" d="M427.1,197.3v10.9H262.7v-98.6h131.5V32.9H240.7v-11h164.4v98.7H273.6v76.7H427.1z"/>
<path id="Trazado_30" class="st1" d="M427.1,219.2v11H240.7V87.7h131.5V54.8H240.7v-11h142.5v54.8H251.7v120.6H427.1z"/>
</svg>
