<svg width="40" height="41" viewBox="0 0 40 41" fill="none" xmlns="http://www.w3.org/2000/svg">
<path d="M20 0.380859C14.5725 0.380859 13.89 0.406176 11.7575 0.502377C9.625 0.603642 8.1725 0.942878 6.9 1.44414C5.56523 1.95253 4.35623 2.75001 3.3575 3.78082C2.34019 4.7927 1.55277 6.01684 1.05 7.36812C0.555 8.65418 0.2175 10.1276 0.12 12.2795C0.025 14.444 0 15.1326 0 20.6363C0 26.135 0.025 26.8236 0.12 28.9831C0.22 31.14 0.555 32.6109 1.05 33.8995C1.5625 35.2311 2.245 36.3602 3.3575 37.4868C4.4675 38.6133 5.5825 39.307 6.8975 39.8234C8.1725 40.3247 9.6225 40.6665 11.7525 40.7652C13.8875 40.8614 14.5675 40.8867 20 40.8867C25.4325 40.8867 26.11 40.8614 28.245 40.7652C30.3725 40.6639 31.83 40.3247 33.1025 39.8234C34.4364 39.3148 35.6445 38.5173 36.6425 37.4868C37.755 36.3602 38.4375 35.2311 38.95 33.8995C39.4425 32.6109 39.78 31.14 39.88 28.9831C39.975 26.8236 40 26.135 40 20.6338C40 15.1326 39.975 14.444 39.88 12.282C39.78 10.1276 39.4425 8.65418 38.95 7.36812C38.4473 6.01681 37.6599 4.79264 36.6425 3.78082C35.6441 2.74963 34.435 1.9521 33.1 1.44414C31.825 0.942878 30.37 0.60111 28.2425 0.502377C26.1075 0.406176 25.43 0.380859 19.995 0.380859H20.0025H20ZM18.2075 4.03145H20.0025C25.3425 4.03145 25.975 4.04917 28.0825 4.1479C30.0325 4.23651 31.0925 4.56815 31.7975 4.8441C32.73 5.21118 33.3975 5.65168 34.0975 6.36054C34.7975 7.06939 35.23 7.7428 35.5925 8.68962C35.8675 9.40101 36.1925 10.4744 36.28 12.4491C36.3775 14.5832 36.3975 15.2237 36.3975 20.6287C36.3975 26.0337 36.3775 26.6768 36.28 28.8109C36.1925 30.7856 35.865 31.8564 35.5925 32.5704C35.2719 33.4497 34.7601 34.2449 34.095 34.8969C33.395 35.6058 32.73 36.0437 31.795 36.4108C31.095 36.6893 30.035 37.0184 28.0825 37.1095C25.975 37.2057 25.3425 37.2285 20.0025 37.2285C14.6625 37.2285 14.0275 37.2057 11.92 37.1095C9.97 37.0184 8.9125 36.6893 8.2075 36.4108C7.33875 36.0866 6.55281 35.5693 5.9075 34.8969C5.24188 34.2438 4.72931 33.448 4.4075 32.5678C4.135 31.8564 3.8075 30.783 3.72 28.8084C3.625 26.6742 3.605 26.0337 3.605 20.6237C3.605 15.2161 3.625 14.5782 3.72 12.444C3.81 10.4693 4.135 9.39594 4.41 8.68203C4.7725 7.73774 5.2075 7.06179 5.9075 6.35294C6.6075 5.64409 7.2725 5.20612 8.2075 4.83904C8.9125 4.56056 9.97 4.23145 11.92 4.14031C13.765 4.05423 14.48 4.02892 18.2075 4.02639V4.03145ZM30.6775 7.39344C30.3623 7.39344 30.0502 7.4563 29.7591 7.57844C29.4679 7.70057 29.2033 7.87959 28.9804 8.10527C28.7576 8.33095 28.5808 8.59887 28.4602 8.89373C28.3396 9.1886 28.2775 9.50463 28.2775 9.82379C28.2775 10.1429 28.3396 10.459 28.4602 10.7538C28.5808 11.0487 28.7576 11.3166 28.9804 11.5423C29.2033 11.768 29.4679 11.947 29.7591 12.0691C30.0502 12.1913 30.3623 12.2541 30.6775 12.2541C31.314 12.2541 31.9245 11.9981 32.3746 11.5423C32.8246 11.0865 33.0775 10.4684 33.0775 9.82379C33.0775 9.17922 32.8246 8.56105 32.3746 8.10527C31.9245 7.64949 31.314 7.39344 30.6775 7.39344ZM20.0025 10.2339C18.6402 10.2124 17.2872 10.4655 16.0224 10.9786C14.7577 11.4916 13.6063 12.2543 12.6354 13.2223C11.6645 14.1903 10.8934 15.3441 10.3671 16.6168C9.8408 17.8894 9.56975 19.2553 9.56975 20.6351C9.56975 22.0148 9.8408 23.3807 10.3671 24.6533C10.8934 25.926 11.6645 27.0798 12.6354 28.0478C13.6063 29.0158 14.7577 29.7785 16.0224 30.2915C17.2872 30.8046 18.6402 31.0577 20.0025 31.0362C22.6989 30.9936 25.2705 29.879 27.1624 27.9331C29.0544 25.9871 30.1148 23.3658 30.1147 20.6351C30.1148 17.9043 29.0544 15.283 27.1624 13.337C25.2705 11.3911 22.6989 10.2765 20.0025 10.2339ZM20.0025 13.882C21.7708 13.882 23.4667 14.5933 24.7171 15.8595C25.9675 17.1257 26.67 18.8431 26.67 20.6338C26.67 22.4245 25.9675 24.1418 24.7171 25.408C23.4667 26.6743 21.7708 27.3856 20.0025 27.3856C18.2342 27.3856 16.5383 26.6743 15.2879 25.408C14.0375 24.1418 13.335 22.4245 13.335 20.6338C13.335 18.8431 14.0375 17.1257 15.2879 15.8595C16.5383 14.5933 18.2342 13.882 20.0025 13.882Z" fill="white"/>
</svg>
