<svg width="40" height="41" viewBox="0 0 40 41" fill="none" xmlns="http://www.w3.org/2000/svg">
<path d="M0 3.28209C0 1.67958 1.315 0.380859 2.9375 0.380859H37.0625C38.685 0.380859 40 1.67958 40 3.28209V37.9855C40 39.588 38.685 40.8867 37.0625 40.8867H2.9375C1.315 40.8867 0 39.588 0 37.9855V3.28209ZM12.3575 34.2893V15.9984H6.355V34.2893H12.3575ZM9.3575 13.4997C11.45 13.4997 12.7525 12.0972 12.7525 10.3402C12.715 8.54532 11.4525 7.18078 9.3975 7.18078C7.3425 7.18078 6 8.54785 6 10.3402C6 12.0972 7.3025 13.4997 9.3175 13.4997H9.3575ZM21.6275 34.2893V24.0743C21.6275 23.5274 21.6675 22.9806 21.8275 22.5907C22.26 21.4996 23.2475 20.368 24.9075 20.368C27.08 20.368 27.9475 22.0439 27.9475 24.5046V34.2893H33.95V23.7983C33.95 18.1781 30.99 15.5655 27.04 15.5655C23.855 15.5655 22.4275 17.3376 21.6275 18.5857V18.649H21.5875C21.6008 18.6279 21.6141 18.6068 21.6275 18.5857V15.9984H15.6275C15.7025 17.7148 15.6275 34.2893 15.6275 34.2893H21.6275Z" fill="white"/>
</svg>
