<svg width="40" height="36" viewBox="0 0 40 36" fill="none" xmlns="http://www.w3.org/2000/svg">
<path d="M20.1288 0.40625H20.3513C22.4064 0.415711 32.8196 0.510317 35.6272 1.46269C36.476 1.75334 37.2495 2.31989 37.8703 3.1057C38.4911 3.89152 38.9375 4.86909 39.165 5.94071C39.4175 7.13906 39.595 8.72529 39.715 10.362L39.74 10.6899L39.795 11.5099L39.815 11.8378C39.9775 14.7202 39.9975 17.4196 40 18.0093V18.2458C39.9975 18.8576 39.975 21.7399 39.795 24.7421L39.775 25.0732L39.7525 25.4012C39.6275 27.205 39.4425 28.9962 39.165 30.3144C38.9382 31.3865 38.492 32.3645 37.8711 33.1504C37.2502 33.9364 36.4764 34.5027 35.6272 34.7924C32.727 35.7763 21.7039 35.8457 20.1763 35.8489H19.8212C19.0487 35.8489 15.8535 35.83 12.5033 35.6849L12.0783 35.666L11.8607 35.6534L11.4332 35.6313L11.0057 35.6092C8.23051 35.4547 5.58785 35.2056 4.37027 34.7893C3.52144 34.4998 2.74783 33.934 2.12694 33.1486C1.50605 32.3633 1.05968 31.3859 0.832552 30.3144C0.555035 28.9994 0.370023 27.205 0.245015 25.4012L0.225014 25.0701L0.205013 24.7421C0.0816241 22.6053 0.0132505 20.4639 0 18.3215L0 17.9336C0.00500031 17.2556 0.0250016 14.9125 0.16001 12.3266L0.177511 12.0018L0.185012 11.8378L0.205013 11.5099L0.260016 10.6899L0.285018 10.362C0.405025 8.72529 0.582536 7.1359 0.835052 5.94071C1.0618 4.86866 1.508 3.89063 2.12892 3.10468C2.74983 2.31873 3.52364 1.75247 4.37277 1.46269C5.59035 1.05273 8.23302 0.800442 11.0082 0.642765L11.4332 0.620691L11.8632 0.60177L12.0783 0.592309L12.5058 0.570235C14.8852 0.473656 17.2656 0.42004 19.6462 0.409404H20.1288V0.40625ZM16.001 10.5291V25.7229L26.3942 18.1291L16.001 10.5291Z" fill="white"/>
</svg>
